PathFileType        4      (X/Y/Z)      C:\Users\pc\Desktop\IMUTRC\Sujet_03\Sujet_03_velo_100.trc         
DataRate	CameraRate	NumFrames	NumMarkers	Units	OrigDataRate	OrigDataStartFrame	OrigNumFrames
60.0	60.0	4	64	mm	60.0	119	947
Frame#	Time	pHipOrigin			pRightASI			pLeftASI			pRightCSI			pLeftCSI			pRightIschialTub			pLeftIschialTub			pSacrum			pL5SpinalProcess			pL3SpinalProcess			pT12SpinalProcess			pIJ			pT4SpinalProcess			pT8SpinalProcess			pPX			pC7SpinalProcess			pTopOfHead			pRightAuricularis			pLeftAuricularis			pBackOfHead			pRightAcromion			pLeftAcromion			pRightArmLatEpicondyle			pRightArmMedEpicondyle			pLeftArmLatEpicondyle			pLeftArmMedEpicondyle			pRightUlnarStyloid			pRightRadialStyloid			pRightOlecranon			pLeftUlnarStyloid			pLeftRadialStyloid			pLeftOlecranon			pRightTopOfHand			pRightPinky			pRightBallHand			pLeftTopOfHand			pLeftPinky			pLeftBallHand			pRightGreaterTrochanter			pRightKneeLatEpicondyle			pRightKneeMedEpicondyle			pRightPatella			pLeftGreaterTrochanter			pLeftKneeLatEpicondyle			pLeftKneeMedEpicondyle			pLeftPatella			pRightTibialTub			pRightLatMalleolus			pRightMedMalleolus			pLeftTibialTub			pLeftLatMalleolus			pLeftMedMalleolus			pRightHeelFoot			pRightFirstMetatarsal			pRightFifthMetatarsal			pRightPivotFoot			pRightHeelCenter			pRightToe			pLeftHeelFoot			pLeftFirstMetatarsal			pLeftFifthMetatarsal			pLeftPivotFoot			pLeftHeelCenter			pLeftToe			
		X1	Y1	Z1	X2	Y2	Z2	X3	Y3	Z3	X4	Y4	Z4	X5	Y5	Z5	X6	Y6	Z6	X7	Y7	Z7	X8	Y8	Z8	X9	Y9	Z9	X10	Y10	Z10	X11	Y11	Z11	X12	Y12	Z12	X13	Y13	Z13	X14	Y14	Z14	X15	Y15	Z15	X16	Y16	Z16	X17	Y17	Z17	X18	Y18	Z18	X19	Y19	Z19	X20	Y20	Z20	X21	Y21	Z21	X22	Y22	Z22	X23	Y23	Z23	X24	Y24	Z24	X25	Y25	Z25	X26	Y26	Z26	X27	Y27	Z27	X28	Y28	Z28	X29	Y29	Z29	X30	Y30	Z30	X31	Y31	Z31	X32	Y32	Z32	X33	Y33	Z33	X34	Y34	Z34	X35	Y35	Z35	X36	Y36	Z36	X37	Y37	Z37	X38	Y38	Z38	X39	Y39	Z39	X40	Y40	Z40	X41	Y41	Z41	X42	Y42	Z42	X43	Y43	Z43	X44	Y44	Z44	X45	Y45	Z45	X46	Y46	Z46	X47	Y47	Z47	X48	Y48	Z48	X49	Y49	Z49	X50	Y50	Z50	X51	Y51	Z51	X52	Y52	Z52	X53	Y53	Z53	X54	Y54	Z54	X55	Y55	Z55	X56	Y56	Z56	X57	Y57	Z57	X58	Y58	Z58	X59	Y59	Z59	X60	Y60	Z60	X61	Y61	Z61	X62	Y62	Z62	X63	Y63	Z63	X64	Y64	Z64	
119	1.967	0.0	1249.98655	7.653960137173716E-14	93.71587000000001	1334.42876	133.05695000000009	92.90946999999998	1321.35346	-141.06340999999992	69.00529	1411.09491	105.52396000000009	68.31408999999998	1400.26603	-120.78806999999992	-70.2725	1213.00709	58.69482000000008	-70.61811	1207.59265	-54.48998999999992	-59.32842	1289.50044	-1.7280099999999174	4.72323	1375.61305	-5.529639999999915	74.65013	1472.84255	-10.656079999999914	139.0474	1561.54718	-15.436909999999912	408.67493	1598.23865	-25.286579999999926	285.98605	1702.09219	-24.537779999999916	211.16311	1642.99417	-20.217739999999914	309.83262	1513.33564	-19.296139999999927	335.4072	1738.38045	-26.496189999999913	606.53234	1767.46866	-72.40371999999994	524.91256	1743.56449	19.065740000000076	494.67234	1742.52768	-122.11286999999992	496.45796	1798.11208	-49.07554999999992	334.8312	1739.18686	181.90210000000008	323.59912	1708.88904	-239.90571999999992	419.1006	1448.65037	182.42051000000006	404.12449	1442.83273	124.01369000000005	405.3917	1423.36379	-231.84165999999993	394.44762	1419.61977	-172.34042999999994	510.28205	1213.75589	101.49193000000004	558.9544	1233.91604	112.66641000000004	384.94356	1441.73833	150.68268000000006	508.20844	1189.27572	-175.79645999999994	554.69197	1211.04867	-191.92456999999993	373.99948	1416.56695	-196.70540999999994	687.11532	1094.75344	174.18365000000003	597.48908	1113.35837	133.86336000000003	557.45679	1179.25325	103.91114000000005	672.19681	1082.54215	-287.54126	592.24744	1094.46544	-228.67363999999998	556.41998	1156.73148	-187.66213999999997	30.18262000000001	1238.81207	164.96758000000008	388.57238	1037.03783	129.83133000000004	388.57238	1038.30504	49.82436000000004	407.81092	1078.16452	87.78303000000004	10.19526999999999	1218.36393	-166.86839999999992	216.51995	860.95337	-159.09233999999995	225.04481	860.43496	-79.54616999999996	258.10745	885.60634	-120.50005999999996	402.74208	981.68383	79.66137000000003	65.43407	727.78121	91.29665000000004	63.82126	735.67247	24.88338000000004	270.95234	818.04106	-124.35928999999996	123.09207999999998	424.11184	-160.99314999999999	130.58014	420.82861	-94.57987999999999	-16.64652	689.88014	25.344180000000044	128.04572	606.76275	-19.92973999999997	112.66641	578.19294	55.00839000000003	139.4506	579.51775	15.321710000000026	16.64652	667.30078	23.558570000000042	207.30388	531.65181	10.94408000000002	70.0421	350.09531	-96.59588999999997	238.86891	312.77024	-94.11907	217.09595	296.29652	-171.07322999999997	250.04339	298.48534	-136.34018	108.11597	340.13044	-105.17834999999998	328.55275	275.96358	-153.6203	
120	1.983	0.0	1249.98655	7.653960137173716E-14	93.48547000000002	1334.83196	132.99935000000008	93.25506999999999	1320.71986	-141.12100999999993	68.89009	1411.44051	105.06315000000008	68.71728999999999	1399.80523	-121.19126999999992	-70.4453	1213.23749	58.69482000000008	-70.56051	1207.41985	-54.48998999999992	-59.27082	1289.55804	-2.0160099999999175	4.83843	1375.61305	-5.932839999999915	74.93814	1472.66975	-11.174479999999916	139.5082	1561.25918	-16.07051999999991	409.25093	1597.25944	-26.150589999999927	286.90765	1701.40098	-25.344179999999916	211.85432	1642.53336	-20.908949999999916	310.17822	1512.58683	-20.102539999999927	336.32881	1737.51644	-27.360199999999914	607.22355	1767.87186	-73.32532999999992	525.77657	1743.39169	18.144130000000075	495.53635	1742.06688	-123.03447999999992	496.91876	1797.70887	-49.99715999999992	335.98321	1737.97725	181.2109000000001	324.46312	1708.37063	-240.6545199999999	420.02221	1447.55597	182.13250000000005	405.3341	1441.73833	123.66809000000006	406.08291	1422.84539	-232.87846999999994	394.96603	1418.98616	-173.43483999999995	510.85806	1212.54628	100.80072000000004	559.53041	1232.59123	111.97520000000004	385.98036	1440.70152	150.45228000000006	508.49644	1188.52691	-177.23646999999994	554.97997	1210.29987	-193.36457999999993	374.63308	1416.04854	-197.79981999999995	687.63372	1093.60143	173.89565000000002	598.00748	1112.09116	133.51776000000004	557.9752	1177.92844	103.33514000000004	672.36962	1081.62055	-288.98127	592.42024	1093.65903	-230.05604999999997	556.65039	1155.98268	-189.10214999999997	30.18262000000001	1239.33048	164.90998000000008	396.34844	1052.12914	129.02492000000004	396.69404	1054.49075	49.07555000000004	414.14697	1094.52304	87.66783000000004	10.31046999999999	1217.90312	-166.8107899999999	207.18868	855.19332	-157.82512999999994	215.02234	854.32932	-78.22135999999996	249.06418	878.63669	-118.82964999999996	412.70696	998.27275	77.58776000000003	86.28542	730.48843	89.16544000000005	83.3478	739.5317	22.982560000000042	259.77786	810.66821	-122.57367999999997	99.70630999999999	421.11662	-154.31150999999997	107.19437	418.3518	-87.89822999999997	7.084850000000002	686.65452	22.982560000000042	157.99793	612.34999	-16.93451999999997	142.96422	584.93219	58.464420000000025	170.43962	586.8906	19.296140000000026	41.8755	666.37917	22.521760000000036	241.57613	543.63269	17.68333000000002	43.48830999999999	350.26811	-88.64702999999997	210.47191	305.39739	-86.34302	187.66214	288.75087	-162.95156999999998	220.83998	290.01808	-128.39131999999998	81.04378	338.40242	-97.28709999999998	298.13974	263.63709	-145.67144	
121	2.0	0.0	1249.98655	7.653960137173716E-14	93.42787000000001	1335.29276	132.76895000000007	93.37026999999999	1320.20145	-141.3514099999999	68.89009	1411.78611	104.54475000000008	68.83248999999999	1399.28682	-121.70966999999992	-70.5029	1213.52549	58.75242000000008	-70.5029	1207.24705	-54.37478999999992	-59.27082	1289.55804	-2.1888199999999176	4.95364	1375.61305	-6.336049999999916	75.22614	1472.55455	-11.865679999999914	140.0266	1561.02878	-16.93451999999991	409.76933	1596.10743	-27.475399999999926	287.82926	1700.70978	-26.553789999999914	212.60312	1642.07256	-21.945759999999915	310.46622	1511.83803	-21.196949999999926	337.25042	1736.59484	-28.685009999999913	607.91475	1767.98706	-74.76533999999992	526.58297	1743.04608	16.704120000000074	496.40036	1741.49087	-124.47448999999992	497.43716	1797.13287	-51.494769999999924	337.42322	1736.76764	180.05889000000008	325.15433	1707.56423	-241.8641299999999	421.00142	1446.40396	181.49890000000005	406.54371	1440.64392	122.97688000000005	406.71651	1422.21179	-234.08807999999993	395.42683	1418.23736	-174.64444999999995	511.43406	1211.22147	100.05192000000004	560.16401	1231.20882	111.11120000000004	387.01717	1439.60711	149.81867000000005	508.84204	1187.72051	-178.56127999999995	555.38318	1209.43586	-194.68938999999995	375.15149	1415.35734	-199.00942999999995	688.15213	1092.33422	173.49244000000002	598.52589	1110.82396	133.05695000000003	558.5512	1176.54603	102.64394000000004	672.65762	1080.64134	-290.30608	592.70824	1092.73743	-231.38085999999998	556.93839	1155.11867	-190.42695999999998	30.41302000000001	1239.84888	164.7947800000001	401.82048	1063.53402	127.75771000000005	402.22368	1066.64444	47.808340000000044	418.5246	1106.79193	86.80382000000004	10.19526999999999	1217.55752	-166.8107899999999	201.65904	851.9677	-158.05552999999995	209.2623	850.87329	-78.45175999999995	243.82255	874.77746	-118.88724999999995	421.00142	1010.94484	75.39894000000002	108.00077	727.60841	87.49503000000004	103.79594	737.28528	21.42735000000004	252.11701	805.65697	-122.51607999999997	76.78134999999999	422.15342	-146.93864999999997	84.84541	420.07981	-80.58297999999998	32.14103	678.41766	21.65776000000004	188.35335	613.27159	-13.824099999999973	173.72284	586.7754	62.03564000000003	201.77425	589.65542	23.270570000000024	68.19889	660.50393	22.291360000000036	275.73317	550.83274	23.961770000000016	18.374529999999996	355.04894	-79.66136999999998	183.22691	303.03577	-77.76056	159.14994	286.21645	-153.96589999999998	192.61578	286.56205	-119.63606	55.29639999999999	341.45525	-88.35902999999999	268.59072	256.55224	-137.08898	
122	2.017	0.0	1249.98655	7.653960137173716E-14	93.60067000000001	1335.86877	132.2505500000001	93.19746999999998	1319.56785	-141.7546199999999	69.00529	1412.24691	103.73834000000008	68.65968999999998	1398.76842	-122.45847999999991	-70.4453	1213.75589	58.982820000000075	-70.61811	1207.01664	-54.08678999999992	-59.27082	1289.55804	-2.2464199999999175	4.95364	1375.61305	-6.796849999999916	75.39894	1472.49695	-12.787289999999915	140.42981	1560.74078	-18.201729999999912	410.28774	1594.84022	-29.491409999999927	288.69327	1699.90337	-28.396999999999913	213.29433	1641.55416	-23.558569999999914	310.63902	1510.91642	-22.867359999999927	338.17202	1735.55803	-30.701019999999914	608.60596	1767.87186	-76.89654999999993	527.44698	1742.52768	14.572900000000075	497.32196	1740.62687	-126.60570999999992	497.95557	1796.38407	-53.68357999999992	339.09363	1735.61563	178.1580800000001	325.67273	1706.35462	-243.7649499999999	421.98062	1445.25195	180.40449000000007	407.81092	1439.49191	121.76727000000005	407.29252	1421.29018	-235.35528999999994	395.77243	1417.31575	-175.96925999999993	512.01007	1209.83906	99.13031000000004	560.79762	1229.71121	110.07439000000004	388.16918	1438.5127	148.72427000000005	509.18765	1186.7989	-179.77088999999995	555.78638	1208.45665	-195.95659999999995	375.61229	1414.49333	-200.27662999999995	688.72813	1091.06701	172.91644000000002	599.10189	1109.44155	132.48095000000004	559.1272	1175.04842	101.83753000000004	673.00322	1079.54693	-291.34289	593.11145	1091.75822	-232.47525999999996	557.34159	1154.13947	-191.57896999999997	31.27702000000001	1240.94329	164.56438000000009	405.5069	1071.19487	125.56890000000004	405.3341	1074.13249	45.61953000000004	421.17422	1114.68318	84.44220000000004	9.676869999999989	1217.38472	-166.9259999999999	200.56464	851.3917	-160.12914999999995	208.51349	850.06689	-80.58297999999996	242.90094	874.02866	-121.13366999999995	427.79826	1019.4121	72.97972000000003	130.86814	719.31395	87.32223000000003	125.7417	728.70282	21.312150000000038	248.66098	802.71935	-124.53208999999997	54.43238999999999	427.97107	-137.89538999999996	63.763659999999994	426.70386	-71.71250999999997	58.75242	665.22716	21.830560000000034	219.05437	609.12436	-10.540879999999976	205.17267	583.26178	65.66447000000002	233.45447	587.0634	27.187390000000022	95.84709	649.55985	23.27057000000003	309.60222	552.84876	29.491410000000016	-5.241640000000005	364.84101	-68.77488999999997	157.42193	306.26139	-67.85329	131.84734	289.32687	-143.54022999999998	165.65879	288.80847	-109.61359	30.989019999999996	349.6345	-77.64535999999997	240.25132	255.57303	-127.35451	
